<svg width="31" height="27" viewBox="0 0 31 27" fill="none" xmlns="http://www.w3.org/2000/svg">
<g clip-path="url(#clip0_1_485)">
<path d="M29.8443 2.80439C30.4866 2.16213 30.4866 1.11908 29.8443 0.476818C29.202 -0.16545 28.159 -0.16545 27.5167 0.476818L17.6515 10.342L15.8686 8.55911C15.6528 8.34331 15.3548 8.21999 15.0465 8.21999C14.4042 8.21999 13.8853 8.73894 13.8853 9.38121V10.8764L19.4499 16.441H20.9451C21.5873 16.441 22.1063 15.9221 22.1063 15.2798C22.1063 14.9715 21.983 14.6735 21.7672 14.4577L19.9842 12.6748L29.8495 2.80953L29.8443 2.80439ZM18.2578 18.1571L12.1691 12.0685C9.97514 11.8783 7.79143 12.6696 6.21916 14.2419L5.80811 14.6529C4.6623 15.7987 4.02004 17.3505 4.02004 18.969C4.02004 19.3184 4.38484 19.5444 4.69827 19.3903L7.32386 18.0801C7.58076 17.9516 7.81198 18.2907 7.60132 18.486L1.10671 24.3229C0.870358 24.5387 0.731628 24.847 0.731628 25.1707C0.731628 25.7976 1.2403 26.3062 1.86716 26.3062H10.7715C12.7651 26.3062 14.6714 25.515 16.0844 24.1071C17.6567 22.5348 18.4428 20.3511 18.2578 18.1571Z" fill="#1A1A1A"/>
</g>
<defs>
<clipPath id="clip0_1_485">
<path d="M0.731567 -0.000976562H30.3272V26.3063H0.731567V-0.000976562Z" fill="white"/>
</clipPath>
</defs>
</svg>
