<svg width="24" height="27" viewBox="0 0 24 27" fill="none" xmlns="http://www.w3.org/2000/svg">
<g clip-path="url(#clip0_1_496)">
<path d="M6.59696 -0.000976562C7.50641 -0.000976562 8.24116 0.733777 8.24116 1.64323V3.28743H14.818V1.64323C14.818 0.733777 15.5527 -0.000976562 16.4622 -0.000976562C17.3716 -0.000976562 18.1064 0.733777 18.1064 1.64323V3.28743H20.5727C21.9343 3.28743 23.039 4.39213 23.039 5.75374V8.22004H0.0201416V5.75374C0.0201416 4.39213 1.12484 3.28743 2.48645 3.28743H4.95275V1.64323C4.95275 0.733777 5.68751 -0.000976562 6.59696 -0.000976562ZM0.0201416 9.86425H23.039V23.84C23.039 25.2016 21.9343 26.3063 20.5727 26.3063H2.48645C1.12484 26.3063 0.0201416 25.2016 0.0201416 23.84V9.86425ZM16.9246 15.6703C17.4076 15.1874 17.4076 14.4064 16.9246 13.9285C16.4416 13.4507 15.6606 13.4455 15.1828 13.9285L10.3016 18.8097L7.88663 16.3948C7.40364 15.9118 6.62265 15.9118 6.1448 16.3948C5.66695 16.8778 5.66182 17.6588 6.1448 18.1366L9.43321 21.4251C9.91619 21.908 10.6972 21.908 11.175 21.4251L16.9246 15.6703Z" fill="#1A1A1A"/>
</g>
<defs>
<clipPath id="clip0_1_496">
<path d="M0.0201416 -0.000976562H23.039V26.3063H0.0201416V-0.000976562Z" fill="white"/>
</clipPath>
</defs>
</svg>
