<svg width="23" height="21" viewBox="0 0 23 21" fill="none" xmlns="http://www.w3.org/2000/svg">
<g clip-path="url(#clip0_1_473)">
<g clip-path="url(#clip1_1_473)">
<path d="M19.7199 3.80025C20.0561 3.80025 20.3311 4.07527 20.3311 4.4114V5.63371H1.99654V4.4114C1.99654 4.07527 2.27156 3.80025 2.60769 3.80025H19.7199ZM20.3311 9.30062V16.6344C20.3311 16.9706 20.0561 17.2456 19.7199 17.2456H2.60769C2.27156 17.2456 1.99654 16.9706 1.99654 16.6344V9.30062H20.3311ZM2.60769 1.9668C1.25934 1.9668 0.163086 3.06305 0.163086 4.4114V16.6344C0.163086 17.9828 1.25934 19.0791 2.60769 19.0791H19.7199C21.0683 19.0791 22.1646 17.9828 22.1646 16.6344V4.4114C22.1646 3.06305 21.0683 1.9668 19.7199 1.9668H2.60769ZM4.74673 13.5787C4.23871 13.5787 3.83 13.9874 3.83 14.4954C3.83 15.0034 4.23871 15.4121 4.74673 15.4121H6.58018C7.0882 15.4121 7.49691 15.0034 7.49691 14.4954C7.49691 13.9874 7.0882 13.5787 6.58018 13.5787H4.74673ZM9.63594 13.5787C9.12792 13.5787 8.71921 13.9874 8.71921 14.4954C8.71921 15.0034 9.12792 15.4121 9.63594 15.4121H13.914C14.422 15.4121 14.8307 15.0034 14.8307 14.4954C14.8307 13.9874 14.422 13.5787 13.914 13.5787H9.63594Z" fill="#6B7280"/>
</g>
</g>
<defs>
<clipPath id="clip0_1_473">
<rect width="22.0015" height="19.5569" fill="white" transform="translate(0.162964 0.744141)"/>
</clipPath>
<clipPath id="clip1_1_473">
<path d="M0.162964 0.744141H22.1644V20.301H0.162964V0.744141Z" fill="white"/>
</clipPath>
</defs>
</svg>
