<svg width="27" height="27" viewBox="0 0 27 27" fill="none" xmlns="http://www.w3.org/2000/svg">
<g clip-path="url(#clip0_1_507)">
<path d="M8.4167 23.0027L7.76929 24.5185C6.80846 24.0304 5.9247 23.4292 5.12315 22.7253L6.28951 21.5589C6.93178 22.119 7.64598 22.6071 8.4167 23.0027ZM2.4616 13.975H0.812256C0.88419 15.0643 1.08972 16.1176 1.41342 17.1144L2.94458 16.503C2.69281 15.6963 2.52326 14.8485 2.4616 13.975ZM2.4616 12.3308C2.53353 11.3649 2.72878 10.4297 3.03193 9.55109L1.51618 8.90368C1.13082 9.98269 0.889328 11.1336 0.812256 12.3308H2.4616ZM3.67934 8.04048C4.08011 7.27489 4.5631 6.56069 5.12315 5.90815L3.9568 4.74179C3.25287 5.54334 2.64657 6.4271 2.16359 7.38793L3.67934 8.04048ZM20.7739 21.5589C20.0597 22.1755 19.2633 22.7047 18.4052 23.1209L19.0167 24.6521C20.0803 24.1434 21.0617 23.4909 21.9403 22.7201L20.7739 21.5589ZM6.28437 4.74693C6.99857 4.13036 7.79498 3.60113 8.65305 3.18494L8.04161 1.65377C6.97802 2.16245 5.99664 2.81499 5.12315 3.58571L6.28437 4.74693ZM23.379 18.2654C22.9782 19.031 22.4952 19.7452 21.9351 20.3977L23.1015 21.5641C23.8054 20.7625 24.4117 19.8736 24.8947 18.9179L23.379 18.2654ZM24.5967 13.975C24.5248 14.941 24.3295 15.8761 24.0264 16.7548L25.5421 17.4022C25.9275 16.318 26.169 15.1671 26.2409 13.9699H24.5967V13.975ZM16.8792 23.7375C16.0725 23.9944 15.2247 24.1588 14.3512 24.2205V25.8698C15.4405 25.7979 16.4938 25.5924 17.4906 25.2686L16.8792 23.7375ZM12.707 24.2205C11.7411 24.1485 10.8059 23.9533 9.92731 23.6501L9.27991 25.1659C10.3641 25.5512 11.515 25.7927 12.7122 25.8647V24.2205H12.707ZM24.1137 9.80286C24.3706 10.6095 24.535 11.4573 24.5967 12.3308H26.246C26.1741 11.2415 25.9686 10.1882 25.6449 9.19142L24.1137 9.80286ZM5.12315 20.3977C4.50658 19.6835 3.97735 18.8871 3.56116 18.029L2.02999 18.6405C2.53867 19.704 3.19121 20.6854 3.96193 21.5641L5.12315 20.3977ZM14.3512 2.08538C15.3172 2.15731 16.2472 2.35256 17.131 2.65571L17.7784 1.13996C16.6994 0.7546 15.5484 0.513107 14.3512 0.436035V2.08538ZM10.1791 2.56836C10.9858 2.31146 11.8336 2.14703 12.707 2.08538V0.436035C11.6178 0.507969 10.5644 0.713495 9.56764 1.0372L10.1791 2.56836ZM23.1015 4.74179L21.9351 5.90815C22.5517 6.62235 23.0809 7.41876 23.5023 8.27683L25.0334 7.66539C24.5248 6.6018 23.8722 5.62042 23.1015 4.74179ZM20.7739 4.74693L21.9403 3.58057C21.1387 2.87665 20.255 2.27035 19.2941 1.78736L18.6467 3.30312C19.4072 3.70389 20.1265 4.18687 20.7739 4.74693Z" fill="#1A1A1A"/>
<path d="M13.5293 20.141C14.3238 20.141 14.9679 19.4969 14.9679 18.7024C14.9679 17.9078 14.3238 17.2637 13.5293 17.2637C12.7347 17.2637 12.0906 17.9078 12.0906 18.7024C12.0906 19.4969 12.7347 20.141 13.5293 20.141Z" fill="#1A1A1A"/>
<path d="M13.9247 16.0302H13.1026C12.7635 16.0302 12.486 15.7527 12.486 15.4136C12.486 11.7655 16.463 12.1303 16.463 9.87469C16.463 8.84706 15.5484 7.80916 13.5137 7.80916C12.0185 7.80916 11.2375 8.30242 10.4719 9.28381C10.2715 9.54071 9.90157 9.59209 9.63952 9.40712L8.96642 8.93441C8.67869 8.73403 8.61189 8.32811 8.83283 8.05065C9.92212 6.65308 11.2169 5.75391 13.5188 5.75391C16.2061 5.75391 18.5234 7.28507 18.5234 9.87469C18.5234 13.3481 14.5464 13.1374 14.5464 15.4136C14.5413 15.7527 14.2638 16.0302 13.9247 16.0302Z" fill="#1A1A1A"/>
</g>
<defs>
<clipPath id="clip0_1_507">
<path d="M0.37561 -0.000976562H26.6829V26.3063H0.37561V-0.000976562Z" fill="white"/>
</clipPath>
</defs>
</svg>
