<svg width="74" height="19" viewBox="0 0 74 19" fill="none" xmlns="http://www.w3.org/2000/svg">
<path d="M0.517045 18V0.545454H12.0739V3.58807H4.20739V7.74716H11.3068V10.7898H4.20739V18H0.517045ZM19.4418 18.2557C18.1179 18.2557 16.973 17.9744 16.0071 17.4119C15.0469 16.8437 14.3054 16.054 13.7827 15.0426C13.2599 14.0256 12.9986 12.8466 12.9986 11.5057C12.9986 10.1534 13.2599 8.97159 13.7827 7.96023C14.3054 6.94318 15.0469 6.15341 16.0071 5.59091C16.973 5.02273 18.1179 4.73864 19.4418 4.73864C20.7656 4.73864 21.9077 5.02273 22.8679 5.59091C23.8338 6.15341 24.5781 6.94318 25.1009 7.96023C25.6236 8.97159 25.8849 10.1534 25.8849 11.5057C25.8849 12.8466 25.6236 14.0256 25.1009 15.0426C24.5781 16.054 23.8338 16.8437 22.8679 17.4119C21.9077 17.9744 20.7656 18.2557 19.4418 18.2557ZM19.4588 15.4432C20.0611 15.4432 20.5639 15.2727 20.9673 14.9318C21.3707 14.5852 21.6747 14.1136 21.8793 13.517C22.0895 12.9205 22.1946 12.2415 22.1946 11.4801C22.1946 10.7188 22.0895 10.0398 21.8793 9.44318C21.6747 8.84659 21.3707 8.375 20.9673 8.02841C20.5639 7.68182 20.0611 7.50852 19.4588 7.50852C18.8509 7.50852 18.3395 7.68182 17.9247 8.02841C17.5156 8.375 17.206 8.84659 16.9957 9.44318C16.7912 10.0398 16.6889 10.7188 16.6889 11.4801C16.6889 12.2415 16.7912 12.9205 16.9957 13.517C17.206 14.1136 17.5156 14.5852 17.9247 14.9318C18.3395 15.2727 18.8509 15.4432 19.4588 15.4432ZM28.2457 18V4.90909H31.7656V7.19318H31.902C32.1406 6.38068 32.5412 5.76705 33.1037 5.35227C33.6662 4.93182 34.3139 4.72159 35.0469 4.72159C35.2287 4.72159 35.4247 4.73295 35.6349 4.75568C35.8452 4.77841 36.0298 4.80966 36.1889 4.84943V8.07102C36.0185 8.01989 35.7827 7.97443 35.4815 7.93466C35.1804 7.89489 34.9048 7.875 34.6548 7.875C34.1207 7.875 33.6435 7.99148 33.223 8.22443C32.8082 8.4517 32.4787 8.76989 32.2344 9.17898C31.9957 9.58807 31.8764 10.0597 31.8764 10.5938V18H28.2457ZM38.0661 18V4.90909H41.5263V7.21875H41.6797C41.9524 6.4517 42.407 5.84659 43.0433 5.40341C43.6797 4.96023 44.4411 4.73864 45.3274 4.73864C46.2251 4.73864 46.9893 4.96307 47.62 5.41193C48.2507 5.85511 48.6712 6.45739 48.8814 7.21875H49.0178C49.2848 6.46875 49.7678 5.86932 50.4666 5.42045C51.1712 4.96591 52.0036 4.73864 52.9638 4.73864C54.1854 4.73864 55.1768 5.12784 55.9382 5.90625C56.7053 6.67898 57.0888 7.77557 57.0888 9.19602V18H53.4666V9.91193C53.4666 9.18466 53.2734 8.6392 52.8871 8.27557C52.5007 7.91193 52.0178 7.73011 51.4382 7.73011C50.7791 7.73011 50.2649 7.94034 49.8956 8.3608C49.5263 8.77557 49.3416 9.32386 49.3416 10.0057V18H45.8217V9.83523C45.8217 9.19318 45.6371 8.68182 45.2678 8.30114C44.9041 7.92045 44.424 7.73011 43.8274 7.73011C43.424 7.73011 43.0604 7.83239 42.7365 8.03693C42.4183 8.2358 42.1655 8.51705 41.978 8.88068C41.7905 9.23864 41.6967 9.65909 41.6967 10.142V18H38.0661ZM59.8374 18V15.8097L68.5476 3.58807H59.8203V0.545454H73.1839V2.73579L64.4652 14.9574H73.201V18H59.8374Z" fill="#1A1A1A"/>
</svg>
