<svg width="11" height="14" viewBox="0 0 11 14" fill="none" xmlns="http://www.w3.org/2000/svg">
<g clip-path="url(#clip0_1_1475)">
<path d="M6.31291 13.3102C7.68007 11.5992 10.7981 7.45243 10.7981 5.12319C10.7981 2.29827 8.50623 0.00634766 5.6813 0.00634766C2.85637 0.00634766 0.564453 2.29827 0.564453 5.12319C0.564453 7.45243 3.68253 11.5992 5.04969 13.3102C5.37749 13.7179 5.98511 13.7179 6.31291 13.3102ZM5.6813 3.41758C6.13366 3.41758 6.56749 3.59728 6.88735 3.91714C7.20722 4.23701 7.38692 4.67084 7.38692 5.12319C7.38692 5.57555 7.20722 6.00938 6.88735 6.32925C6.56749 6.64911 6.13366 6.82881 5.6813 6.82881C5.22894 6.82881 4.79511 6.64911 4.47525 6.32925C4.15538 6.00938 3.97568 5.57555 3.97568 5.12319C3.97568 4.67084 4.15538 4.23701 4.47525 3.91714C4.79511 3.59728 5.22894 3.41758 5.6813 3.41758Z" fill="white"/>
</g>
<defs>
<clipPath id="clip0_1_1475">
<path d="M0.564453 0.00634766H10.7981V13.6513H0.564453V0.00634766Z" fill="white"/>
</clipPath>
</defs>
</svg>
