<svg width="37" height="32" viewBox="0 0 37 32" fill="none" xmlns="http://www.w3.org/2000/svg">
<g clip-path="url(#clip0_1_1609)">
<path d="M3.81989 29.6969C2.19453 29.6969 0.876953 28.3787 0.876953 26.7539V5.17243C0.876953 3.54707 2.19453 2.22949 3.81989 2.22949H33.2492C34.874 2.22949 36.1922 3.54707 36.1922 5.17243V5.32141H31.5632L30.5209 8.23798L29.4847 5.32141H23.5253V9.19444L21.8024 5.32141H16.9834L11.9743 16.6437H16.0085V26.6865H28.4976L30.4534 24.5345L32.4093 26.6865H36.1922V26.7539C36.1922 28.3787 34.874 29.6969 33.2492 29.6969H3.81989ZM30.4657 22.5848L27.8784 25.4235H24.819L28.9575 21.0275L24.819 16.5824H27.9703L30.5148 19.4457L33.0898 16.5824H36.1922L32.023 21.003L36.1922 25.4235H33.0408L30.4657 22.5848ZM36.1922 18.4708V23.578L33.7826 21.0091L36.1922 18.4708ZM19.7363 23.388H24.8251V25.4235H17.3451V16.6437H24.8251V18.6731H19.7363V20.0465H24.6963V22.0269H19.7363V23.3941V23.388ZM33.8194 9.20057L31.557 15.3685H29.4479L27.1917 9.21896V15.3685H24.819V6.58258H28.5712L30.527 12.0577L32.5012 6.58258H36.1922V15.3685H33.8194V9.20057ZM21.3855 13.6088H17.3451L16.6155 15.3685H13.9791L17.805 6.58258H20.9441L24.8251 15.3685H22.1213L21.3855 13.6088ZM19.3623 8.75913L18.1667 11.6346H20.5517L19.3623 8.75913Z" fill="#3B82F6"/>
</g>
<defs>
<clipPath id="clip0_1_1609">
<path d="M0.876953 0.267578H36.1922V31.6589H0.876953V0.267578Z" fill="white"/>
</clipPath>
</defs>
</svg>
