<svg width="40" height="32" viewBox="0 0 40 32" fill="none" xmlns="http://www.w3.org/2000/svg">
<g clip-path="url(#clip0_1_1617)">
<path d="M7.5289 9.98443C7.06906 10.5301 6.33333 10.9593 5.5976 10.898C5.50563 10.1622 5.86737 9.37745 6.29041 8.89922C6.75025 8.34129 7.55342 7.94276 8.20945 7.91211C8.28302 8.67237 7.9826 9.42649 7.5289 9.98443ZM8.19719 11.039C7.13038 10.9777 6.21684 11.646 5.71409 11.646C5.19907 11.646 4.42655 11.0696 3.58046 11.088C2.48299 11.1064 1.46523 11.7257 0.907295 12.7128C-0.245355 14.6931 0.60687 17.6177 1.72273 19.2301C2.2684 20.0272 2.9183 20.9039 3.77666 20.8733C4.59209 20.8426 4.91091 20.346 5.89189 20.346C6.879 20.346 7.16716 20.8733 8.02552 20.861C8.91453 20.8426 9.47246 20.064 10.0181 19.2669C10.6374 18.3595 10.8949 17.4828 10.9071 17.4337C10.8887 17.4153 9.19043 16.7654 9.17204 14.8035C9.15364 13.1603 10.5148 12.3817 10.5761 12.3326C9.80967 11.1923 8.61411 11.0696 8.19719 11.039ZM14.3528 8.81951V20.7691H16.2106V16.6857H18.7795C21.1277 16.6857 22.7708 15.0733 22.7708 12.7434C22.7708 10.4136 21.1522 8.81951 18.8408 8.81951H14.3528ZM16.2106 10.3829H18.3503C19.9628 10.3829 20.8825 11.2413 20.8825 12.7496C20.8825 14.2578 19.9628 15.1284 18.3442 15.1284H16.2106V10.3829ZM26.1552 20.861C27.3201 20.861 28.3992 20.2724 28.8897 19.3344H28.9265V20.7691H30.6432V14.8219C30.6432 13.099 29.2637 11.9832 27.1423 11.9832C25.1742 11.9832 23.715 13.1113 23.6599 14.6563H25.3337C25.4747 13.9206 26.1552 13.4362 27.0872 13.4362C28.2214 13.4362 28.859 13.9635 28.859 14.9384V15.6005L26.5415 15.7415C24.3895 15.8703 23.2246 16.7532 23.2246 18.286C23.2307 19.831 24.4324 20.861 26.1552 20.861ZM26.658 19.4447C25.6709 19.4447 25.0394 18.9665 25.0394 18.243C25.0394 17.4889 25.6463 17.0536 26.8051 16.9862L28.8652 16.8574V17.5318C28.8652 18.6477 27.9149 19.4447 26.658 19.4447ZM32.9424 24.0185C34.751 24.0185 35.6033 23.3257 36.3451 21.235L39.6008 12.0997H37.7124L35.5297 19.1566H35.4929L33.3102 12.0997H31.3728L34.5119 20.7997L34.3403 21.327C34.0582 22.2221 33.5984 22.5716 32.7768 22.5716C32.6297 22.5716 32.3476 22.5532 32.2312 22.5409V23.9756C32.3415 24.0002 32.8013 24.0185 32.9424 24.0185Z" fill="#1A1A1A"/>
</g>
<defs>
<clipPath id="clip0_1_1617">
<path d="M0.361328 0.267578H39.6005V31.6589H0.361328V0.267578Z" fill="white"/>
</clipPath>
</defs>
</svg>
