<svg width="22" height="14" viewBox="0 0 22 14" fill="none" xmlns="http://www.w3.org/2000/svg">
<path fill-rule="evenodd" clip-rule="evenodd" d="M1.46375 1.39604C1.76355 1.10759 2.16561 0.949976 2.58157 0.957824C2.99753 0.965672 3.39335 1.13834 3.68206 1.43789L11.4462 9.67916L19.2103 1.43789C19.3514 1.28231 19.5223 1.15663 19.7129 1.06832C19.9035 0.980001 20.1099 0.93084 20.3198 0.923747C20.5298 0.916653 20.739 0.951772 20.9351 1.02702C21.1312 1.10227 21.3102 1.21612 21.4616 1.36183C21.6129 1.50753 21.7334 1.68212 21.816 1.87526C21.8986 2.0684 21.9416 2.27615 21.9424 2.48621C21.9432 2.69626 21.9019 2.90435 21.8208 3.09813C21.7398 3.29192 21.6206 3.46746 21.4705 3.61436L12.5763 13.0317C12.4298 13.1837 12.2543 13.3045 12.0601 13.387C11.866 13.4695 11.6572 13.5121 11.4462 13.5121C11.2352 13.5121 11.0264 13.4695 10.8322 13.387C10.638 13.3045 10.4625 13.1837 10.3161 13.0317L1.42189 3.61436C1.13345 3.31455 0.97583 2.91249 0.983678 2.49653C0.991526 2.08057 1.1642 1.68475 1.46375 1.39604Z" fill="#1A1A1A"/>
</svg>
