<svg width="19" height="22" viewBox="0 0 19 22" fill="none" xmlns="http://www.w3.org/2000/svg">
<g clip-path="url(#clip0_1_1628)">
<path d="M0.769913 10.223C0.258987 10.734 0.258987 11.5637 0.769913 12.0746L7.30977 18.6145C7.82069 19.1254 8.65044 19.1254 9.16136 18.6145C9.67229 18.1036 9.67229 17.2738 9.16136 16.7629L4.84915 12.4548H17.3893C18.1128 12.4548 18.6973 11.8703 18.6973 11.1468C18.6973 10.4233 18.1128 9.83882 17.3893 9.83882H4.85323L9.15728 5.53069C9.6682 5.01976 9.6682 4.19002 9.15728 3.67909C8.64635 3.16817 7.81661 3.16817 7.30568 3.67909L0.765826 10.2189L0.769913 10.223Z" fill="#1A1A1A"/>
</g>
<defs>
<clipPath id="clip0_1_1628">
<path d="M0.384766 0.682617H18.6964V21.6102H0.384766V0.682617Z" fill="white"/>
</clipPath>
</defs>
</svg>
