<svg width="30" height="34" viewBox="0 0 30 34" fill="none" xmlns="http://www.w3.org/2000/svg">
<path d="M9.03203 0.668457C10.1785 0.668457 11.1047 1.5947 11.1047 2.74116V4.81387H19.3955V2.74116C19.3955 1.5947 20.3218 0.668457 21.4683 0.668457C22.6147 0.668457 23.541 1.5947 23.541 2.74116V4.81387H26.65C28.3665 4.81387 29.7591 6.20646 29.7591 7.92292V11.032H0.741211V7.92292C0.741211 6.20646 2.13381 4.81387 3.85027 4.81387H6.95932V2.74116C6.95932 1.5947 7.88556 0.668457 9.03203 0.668457ZM0.741211 13.1047H29.7591V30.7227C29.7591 32.4391 28.3665 33.8317 26.65 33.8317H3.85027C2.13381 33.8317 0.741211 32.4391 0.741211 30.7227V13.1047ZM22.0512 20.4239C22.6601 19.8151 22.6601 18.8305 22.0512 18.2281C21.4423 17.6258 20.4578 17.6193 19.8554 18.2281L13.7021 24.3815L10.6578 21.3372C10.0489 20.7283 9.06441 20.7283 8.46203 21.3372C7.85965 21.9461 7.85318 22.9306 8.46203 23.533L12.6074 27.6784C13.2163 28.2872 14.2008 28.2872 14.8032 27.6784L22.0512 20.4239Z" fill="white"/>
</svg>
