<svg width="27" height="26" viewBox="0 0 27 26" fill="none" xmlns="http://www.w3.org/2000/svg">
<path d="M6.84595 1.14111V4.0897M20.606 1.14111V4.0897M1.93164 21.7812V7.03829C1.93164 6.25628 2.24229 5.50629 2.79526 4.95332C3.34823 4.40036 4.09821 4.0897 4.88023 4.0897H22.5718C23.3538 4.0897 24.1038 4.40036 24.6567 4.95332C25.2097 5.50629 25.5203 6.25628 25.5203 7.03829V21.7812M1.93164 21.7812C1.93164 22.5632 2.24229 23.3132 2.79526 23.8662C3.34823 24.4192 4.09821 24.7298 4.88023 24.7298H22.5718C23.3538 24.7298 24.1038 24.4192 24.6567 23.8662C25.2097 23.3132 25.5203 22.5632 25.5203 21.7812M1.93164 21.7812V11.9526C1.93164 11.1706 2.24229 10.4206 2.79526 9.86764C3.34823 9.31467 4.09821 9.00402 4.88023 9.00402H22.5718C23.3538 9.00402 24.1038 9.31467 24.6567 9.86764C25.2097 10.4206 25.5203 11.1706 25.5203 11.9526V21.7812" stroke="black" stroke-width="1.96573" stroke-linecap="round" stroke-linejoin="round"/>
</svg>
