<svg width="30" height="29" viewBox="0 0 30 29" fill="none" xmlns="http://www.w3.org/2000/svg">
<g clip-path="url(#clip0_1_791)">
<path d="M7.91954 0.00195312H11.5164C12.5112 0.00195312 13.3148 0.805626 13.3148 1.80038V7.19566H6.12111V1.80038C6.12111 0.805626 6.92479 0.00195312 7.91954 0.00195312ZM0.72583 14.3894C0.72583 11.4107 3.14247 8.99409 6.12111 8.99409H13.3148C16.2935 8.99409 18.7101 11.4107 18.7101 14.3894V26.0792C18.7101 27.5685 17.5018 28.7768 16.0125 28.7768H3.42347C1.93415 28.7768 0.72583 27.5685 0.72583 26.0792V14.3894ZM14.214 18.8854C14.214 17.693 13.7403 16.5494 12.8972 15.7062C12.054 14.8631 10.9104 14.3894 9.71797 14.3894C8.52554 14.3894 7.38195 14.8631 6.53877 15.7062C5.69559 16.5494 5.2219 17.693 5.2219 18.8854C5.2219 20.0779 5.69559 21.2215 6.53877 22.0646C7.38195 22.9078 8.52554 23.3815 9.71797 23.3815C10.9104 23.3815 12.054 22.9078 12.8972 22.0646C13.7403 21.2215 14.214 20.0779 14.214 18.8854ZM15.1133 3.59881C15.1133 3.12184 15.3027 2.6644 15.64 2.32713C15.9773 1.98986 16.4347 1.80038 16.9117 1.80038C17.3887 1.80038 17.8461 1.98986 18.1834 2.32713C18.5206 2.6644 18.7101 3.12184 18.7101 3.59881C18.7101 4.07578 18.5206 4.53322 18.1834 4.87049C17.8461 5.20776 17.3887 5.39724 16.9117 5.39724C16.4347 5.39724 15.9773 5.20776 15.64 4.87049C15.3027 4.53322 15.1133 4.07578 15.1133 3.59881ZM22.307 1.80038C22.7839 1.80038 23.2414 1.98986 23.5786 2.32713C23.9159 2.6644 24.1054 3.12184 24.1054 3.59881C24.1054 4.07578 23.9159 4.53322 23.5786 4.87049C23.2414 5.20776 22.7839 5.39724 22.307 5.39724C21.83 5.39724 21.3726 5.20776 21.0353 4.87049C20.698 4.53322 20.5085 4.07578 20.5085 3.59881C20.5085 3.12184 20.698 2.6644 21.0353 2.32713C21.3726 1.98986 21.83 1.80038 22.307 1.80038ZM25.9038 3.59881C25.9038 3.12184 26.0933 2.6644 26.4306 2.32713C26.7678 1.98986 27.2253 1.80038 27.7022 1.80038C28.1792 1.80038 28.6367 1.98986 28.9739 2.32713C29.3112 2.6644 29.5007 3.12184 29.5007 3.59881C29.5007 4.07578 29.3112 4.53322 28.9739 4.87049C28.6367 5.20776 28.1792 5.39724 27.7022 5.39724C27.2253 5.39724 26.7678 5.20776 26.4306 4.87049C26.0933 4.53322 25.9038 4.07578 25.9038 3.59881ZM27.7022 7.19566C28.1792 7.19566 28.6367 7.38514 28.9739 7.72241C29.3112 8.05968 29.5007 8.51712 29.5007 8.99409C29.5007 9.47107 29.3112 9.9285 28.9739 10.2658C28.6367 10.603 28.1792 10.7925 27.7022 10.7925C27.2253 10.7925 26.7678 10.603 26.4306 10.2658C26.0933 9.9285 25.9038 9.47107 25.9038 8.99409C25.9038 8.51712 26.0933 8.05968 26.4306 7.72241C26.7678 7.38514 27.2253 7.19566 27.7022 7.19566ZM25.9038 14.3894C25.9038 13.9124 26.0933 13.455 26.4306 13.1177C26.7678 12.7804 27.2253 12.5909 27.7022 12.5909C28.1792 12.5909 28.6367 12.7804 28.9739 13.1177C29.3112 13.455 29.5007 13.9124 29.5007 14.3894C29.5007 14.8663 29.3112 15.3238 28.9739 15.6611C28.6367 15.9983 28.1792 16.1878 27.7022 16.1878C27.2253 16.1878 26.7678 15.9983 26.4306 15.6611C26.0933 15.3238 25.9038 14.8663 25.9038 14.3894ZM22.307 7.19566C22.7839 7.19566 23.2414 7.38514 23.5786 7.72241C23.9159 8.05968 24.1054 8.51712 24.1054 8.99409C24.1054 9.47107 23.9159 9.9285 23.5786 10.2658C23.2414 10.603 22.7839 10.7925 22.307 10.7925C21.83 10.7925 21.3726 10.603 21.0353 10.2658C20.698 9.9285 20.5085 9.47107 20.5085 8.99409C20.5085 8.51712 20.698 8.05968 21.0353 7.72241C21.3726 7.38514 21.83 7.19566 22.307 7.19566Z" fill="#1A1A1A"/>
</g>
<defs>
<clipPath id="clip0_1_791">
<path d="M0.72583 0.00195312H29.5007V28.7768H0.72583V0.00195312Z" fill="white"/>
</clipPath>
</defs>
</svg>
