<svg width="21" height="19" viewBox="0 0 21 19" fill="none" xmlns="http://www.w3.org/2000/svg">
<g clip-path="url(#clip0_1_1126)">
<path d="M20.0196 2.64001C20.4604 2.19921 20.4604 1.48333 20.0196 1.04252C19.5788 0.601712 18.8629 0.601712 18.4221 1.04252L11.6513 7.81335L10.4276 6.58967C10.2795 6.44156 10.0749 6.35692 9.86334 6.35692C9.42253 6.35692 9.06635 6.71309 9.06635 7.1539V8.18011L12.8855 11.9993H13.9117C14.3525 11.9993 14.7087 11.6431 14.7087 11.2023C14.7087 10.9907 14.6241 10.7862 14.476 10.6381L13.2523 9.41437L20.0231 2.64354L20.0196 2.64001ZM12.0674 13.1771L7.88851 8.99825C6.3827 8.86777 4.88395 9.41085 3.80485 10.49L3.52273 10.7721C2.73633 11.5585 2.29552 12.6235 2.29552 13.7343C2.29552 13.9741 2.5459 14.1293 2.76101 14.0235L4.56304 13.1242C4.73937 13.0361 4.89806 13.2688 4.75347 13.4028L0.296007 17.4089C0.133789 17.557 0.0385742 17.7686 0.0385742 17.9908C0.0385742 18.421 0.387695 18.7701 0.817925 18.7701H6.92931C8.29758 18.7701 9.6059 18.227 10.5757 17.2608C11.6548 16.1817 12.1943 14.6829 12.0674 13.1771Z" fill="white"/>
</g>
<defs>
<clipPath id="clip0_1_1126">
<path d="M0.0385742 0.714844H20.3511V18.7704H0.0385742V0.714844Z" fill="white"/>
</clipPath>
</defs>
</svg>
