<svg width="19" height="19" viewBox="0 0 19 19" fill="none" xmlns="http://www.w3.org/2000/svg">
<g clip-path="url(#clip0_1_1144)">
<path d="M9.76313 0.714844C12.1574 0.714844 14.4537 1.66598 16.1467 3.35902C17.8398 5.05206 18.7909 7.34831 18.7909 9.74262C18.7909 12.1369 17.8398 14.4332 16.1467 16.1262C14.4537 17.8193 12.1574 18.7704 9.76313 18.7704C7.36881 18.7704 5.07256 17.8193 3.37953 16.1262C1.68649 14.4332 0.735352 12.1369 0.735352 9.74262C0.735352 7.34831 1.68649 5.05206 3.37953 3.35902C5.07256 1.66598 7.36881 0.714844 9.76313 0.714844ZM8.91677 4.94661V9.74262C8.91677 10.0247 9.05783 10.2892 9.29411 10.4479L12.6795 12.7049C13.0674 12.9658 13.5929 12.86 13.8538 12.4686C14.1148 12.0771 14.009 11.5552 13.6176 11.2943L10.6095 9.29123V4.94661C10.6095 4.47759 10.2322 4.10026 9.76313 4.10026C9.29411 4.10026 8.91677 4.47759 8.91677 4.94661Z" fill="white"/>
</g>
<defs>
<clipPath id="clip0_1_1144">
<path d="M0.735352 0.714844H18.7909V18.7704H0.735352V0.714844Z" fill="white"/>
</clipPath>
</defs>
</svg>
