<svg width="22" height="30" viewBox="0 0 22 30" fill="none" xmlns="http://www.w3.org/2000/svg">
<g clip-path="url(#clip0_1_749)">
<path d="M3.0204 0.520996C1.53107 0.520996 0.322754 1.72931 0.322754 3.21864V26.5982C0.322754 28.0875 1.53107 29.2958 3.0204 29.2958H8.41568V24.7998C8.41568 23.3104 9.624 22.1021 11.1133 22.1021C12.6026 22.1021 13.811 23.3104 13.811 24.7998V29.2958H19.2062C20.6956 29.2958 21.9039 28.0875 21.9039 26.5982V3.21864C21.9039 1.72931 20.6956 0.520996 19.2062 0.520996H3.0204ZM3.91961 14.0092C3.91961 13.5146 4.32426 13.11 4.81882 13.11H6.61725C7.11182 13.11 7.51647 13.5146 7.51647 14.0092V15.8076C7.51647 16.3022 7.11182 16.7068 6.61725 16.7068H4.81882C4.32426 16.7068 3.91961 16.3022 3.91961 15.8076V14.0092ZM10.2141 13.11H12.0125C12.5071 13.11 12.9117 13.5146 12.9117 14.0092V15.8076C12.9117 16.3022 12.5071 16.7068 12.0125 16.7068H10.2141C9.71954 16.7068 9.31489 16.3022 9.31489 15.8076V14.0092C9.31489 13.5146 9.71954 13.11 10.2141 13.11ZM14.7102 14.0092C14.7102 13.5146 15.1148 13.11 15.6094 13.11H17.4078C17.9024 13.11 18.307 13.5146 18.307 14.0092V15.8076C18.307 16.3022 17.9024 16.7068 17.4078 16.7068H15.6094C15.1148 16.7068 14.7102 16.3022 14.7102 15.8076V14.0092ZM4.81882 5.91628H6.61725C7.11182 5.91628 7.51647 6.32093 7.51647 6.81549V8.61392C7.51647 9.10849 7.11182 9.51314 6.61725 9.51314H4.81882C4.32426 9.51314 3.91961 9.10849 3.91961 8.61392V6.81549C3.91961 6.32093 4.32426 5.91628 4.81882 5.91628ZM9.31489 6.81549C9.31489 6.32093 9.71954 5.91628 10.2141 5.91628H12.0125C12.5071 5.91628 12.9117 6.32093 12.9117 6.81549V8.61392C12.9117 9.10849 12.5071 9.51314 12.0125 9.51314H10.2141C9.71954 9.51314 9.31489 9.10849 9.31489 8.61392V6.81549ZM15.6094 5.91628H17.4078C17.9024 5.91628 18.307 6.32093 18.307 6.81549V8.61392C18.307 9.10849 17.9024 9.51314 17.4078 9.51314H15.6094C15.1148 9.51314 14.7102 9.10849 14.7102 8.61392V6.81549C14.7102 6.32093 15.1148 5.91628 15.6094 5.91628Z" fill="#1A1A1A"/>
</g>
<defs>
<clipPath id="clip0_1_749">
<path d="M0.322754 0.520996H21.9039V29.2958H0.322754V0.520996Z" fill="white"/>
</clipPath>
</defs>
</svg>
