<svg width="17" height="19" viewBox="0 0 17 19" fill="none" xmlns="http://www.w3.org/2000/svg">
<g clip-path="url(#clip0_1_1135)">
<path d="M3.95622 1.84332V2.97179H2.26351C1.32899 2.97179 0.570801 3.72998 0.570801 4.6645V6.3572H16.3694V4.6645C16.3694 3.72998 15.6112 2.97179 14.6767 2.97179H12.984V1.84332C12.984 1.21913 12.4797 0.714844 11.8555 0.714844C11.2313 0.714844 10.7271 1.21913 10.7271 1.84332V2.97179H6.21316V1.84332C6.21316 1.21913 5.70888 0.714844 5.08469 0.714844C4.4605 0.714844 3.95622 1.21913 3.95622 1.84332ZM16.3694 7.48568H0.570801V17.0777C0.570801 18.0122 1.32899 18.7704 2.26351 18.7704H14.6767C15.6112 18.7704 16.3694 18.0122 16.3694 17.0777V7.48568Z" fill="white"/>
</g>
<defs>
<clipPath id="clip0_1_1135">
<path d="M0.570801 0.714844H16.3694V18.7704H0.570801V0.714844Z" fill="white"/>
</clipPath>
</defs>
</svg>
