<svg width="36" height="32" viewBox="0 0 36 32" fill="none" xmlns="http://www.w3.org/2000/svg">
<g clip-path="url(#clip0_1_1613)">
<path d="M32.0255 12.2907C32.0255 11.8063 31.6882 11.5488 31.069 11.5488H30.7686V13.0754H31.0567C31.6882 13.0754 32.0255 12.8057 32.0255 12.2907ZM32.4914 2.22949H3.06208C1.43733 2.22949 0.119141 3.54768 0.119141 5.17243V26.7539C0.119141 28.3787 1.43733 29.6969 3.06208 29.6969H32.4914C34.1162 29.6969 35.4344 28.3787 35.4344 26.7539V5.17243C35.4344 3.54768 34.1162 2.22949 32.4914 2.22949ZM29.7876 10.7456C31.1732 10.7456 33.031 10.4942 33.031 12.2416C33.031 13.0141 32.6263 13.5107 31.8844 13.664L33.4663 15.7731H32.2646L30.9035 13.7621H30.7686V15.7731H29.7876V10.7456ZM26.3603 10.7517H29.1377V11.6101H27.3413V12.726H29.0764V13.5721H27.3413V14.9332H29.1377V15.7793H26.3603V10.7517ZM22.1482 10.7517L23.4909 14.1361L24.8521 10.7517H25.925L23.7485 15.9141H23.2212L21.0753 10.7517H22.1482ZM18.7209 10.5678C20.2353 10.5678 21.4554 11.794 21.4554 13.3023C21.4554 14.8167 20.2292 16.0368 18.7209 16.0368C17.2066 16.0368 15.9865 14.8105 15.9865 13.3023C15.9865 11.7879 17.2127 10.5678 18.7209 10.5678ZM15.6983 10.9418V12.1067C14.4659 10.8744 12.8289 11.8186 12.8289 13.2716C12.8289 14.8044 14.515 15.6321 15.6983 14.4488V15.6137C13.8774 16.4905 11.8173 15.2642 11.8173 13.2716C11.8173 11.3587 13.8467 10.0221 15.6983 10.9418ZM9.73886 15.0067C10.4378 15.0067 11.1122 14.0687 9.53653 13.5107C8.61686 13.1735 8.29805 12.8118 8.29805 12.119C8.29805 10.6966 10.1742 10.1938 11.3452 11.2422L10.8302 11.9044C10.1926 11.1932 9.30355 11.5243 9.30355 12.0577C9.30355 12.3274 9.46909 12.4807 10.0577 12.6892C11.1735 13.0938 11.5046 13.4556 11.5046 14.2587C11.5046 16.0674 9.12575 16.5518 8.03441 14.9516L8.66591 14.3446C8.89276 14.7799 9.27289 15.0067 9.73886 15.0067ZM3.51578 15.7793H2.0811V10.7517H3.51578C5.116 10.7517 6.2196 11.794 6.2196 13.2716C6.2196 14.4059 5.41029 15.7793 3.51578 15.7793ZM7.65428 15.7793H6.6733V10.7517H7.65428V15.7793ZM33.4724 26.8153C33.4724 27.318 33.0555 27.7349 32.5527 27.7349H7.96697C19.5916 25.5522 31.4307 19.2004 33.4724 17.9251V26.8153ZM4.6623 12.0148C4.34348 11.7143 3.95109 11.6101 3.31958 11.6101H3.06208V14.9332H3.31958C3.95109 14.9332 4.36187 14.8105 4.6623 14.5408C5.01177 14.222 5.20796 13.756 5.20796 13.2716C5.20796 12.7873 5.01177 12.3213 4.6623 12.0148Z" fill="#EA580C"/>
</g>
<defs>
<clipPath id="clip0_1_1613">
<path d="M0.119141 0.267578H35.4344V31.6589H0.119141V0.267578Z" fill="white"/>
</clipPath>
</defs>
</svg>
