<svg width="40" height="32" viewBox="0 0 40 32" fill="none" xmlns="http://www.w3.org/2000/svg">
<g clip-path="url(#clip0_1_1621)">
<path d="M7.0111 13.4494V15.9784H10.512C10.4414 16.3816 10.2902 16.7664 10.0675 17.1098C9.8448 17.4533 9.55515 17.7483 9.21585 17.9772C8.63094 18.3788 7.88417 18.6075 7.00865 18.6075C5.31646 18.6075 3.88607 17.4481 3.3729 15.8963C3.10437 15.0799 3.10437 14.1989 3.3729 13.3825C3.88607 11.8216 5.31646 10.6622 7.00865 10.6622C7.46733 10.6536 7.92313 10.7364 8.34953 10.9056C8.77593 11.0749 9.16441 11.3272 9.49236 11.648L11.3489 9.77069C10.1796 8.65978 8.62387 8.04759 7.0111 8.06379C5.80463 8.06842 4.62348 8.41022 3.60099 9.05061C2.57849 9.69099 1.75537 10.6045 1.22456 11.6879C0.76732 12.6035 0.529297 13.6129 0.529297 14.6363C0.529297 15.6598 0.76732 16.6692 1.22456 17.5848V17.594C1.75552 18.6768 2.57886 19.5894 3.60146 20.2287C4.62406 20.8679 5.80513 21.2083 7.0111 21.2114C8.75663 21.2114 10.233 20.6271 11.3029 19.6228C12.5291 18.4818 13.2287 16.7933 13.2287 14.7847C13.2294 14.3374 13.1935 13.8908 13.1214 13.4494H7.0111ZM30.8863 13.2041C30.2652 12.629 29.4191 12.3372 28.3486 12.3372C26.9716 12.3372 25.9366 12.8485 25.2524 13.8614L26.5307 14.6744C26.9987 13.9795 27.6376 13.6321 28.4473 13.6321C28.9629 13.6333 29.4597 13.8253 29.8421 14.171C30.0285 14.3328 30.178 14.5328 30.2805 14.7573C30.383 14.9819 30.4361 15.2258 30.4363 15.4726V15.8105C29.8783 15.4996 29.1763 15.3353 28.3124 15.3353C27.3045 15.3353 26.4946 15.5732 25.8913 16.0569C25.288 16.5407 24.9826 17.1795 24.9826 17.9919C24.9732 18.355 25.045 18.7155 25.1929 19.0473C25.3408 19.379 25.561 19.6734 25.8373 19.9091C26.4044 20.4204 27.1248 20.6761 27.9703 20.6761C28.9691 20.6761 29.7612 20.2285 30.3615 19.334H30.4228V20.4204H31.809V15.5953C31.8133 14.5806 31.5074 13.7768 30.8863 13.2041ZM29.7073 18.6792C29.4946 18.8955 29.2411 19.0674 28.9615 19.1849C28.6818 19.3024 28.3816 19.3631 28.0782 19.3634C27.6705 19.3702 27.2731 19.2347 26.9544 18.9802C26.8057 18.8688 26.6851 18.7241 26.6024 18.5577C26.5197 18.3913 26.4771 18.2078 26.478 18.0219C26.478 17.5928 26.6754 17.2366 27.0629 16.9539C27.4504 16.6713 27.9538 16.5247 28.5387 16.5247C29.3455 16.5149 29.977 16.6989 30.4271 17.063C30.4271 17.6841 30.1843 18.2224 29.7073 18.6792ZM23.9655 9.97302C23.6401 9.64776 23.2524 9.39158 22.8256 9.21985C22.3988 9.04812 21.9417 8.96437 21.4818 8.97365H17.6394V20.4229H19.0882V15.7853H21.4793C22.4603 15.7853 23.288 15.4567 23.963 14.8086C24.017 14.7541 24.0709 14.6989 24.1255 14.6443C24.7163 13.9996 25.0305 13.1487 25.0006 12.2747C24.9706 11.4008 24.599 10.5734 23.9655 9.97057V9.97302ZM22.9489 13.7884C22.7663 13.9834 22.5442 14.1371 22.2974 14.2395C22.0507 14.3418 21.7849 14.3904 21.5179 14.3819H19.0882V10.3838H21.5179C22.0364 10.3819 22.5346 10.5854 22.9036 10.9497C23.2789 11.3235 23.4937 11.829 23.5021 12.3586C23.5106 12.8883 23.3121 13.4004 22.9489 13.786V13.7884ZM38.1933 12.591L35.953 18.2132H35.9254L33.6312 12.591H32.0561L35.2314 19.9208L33.4319 23.8643H34.9248L39.7684 12.591H38.1933Z" fill="#3B82F6"/>
</g>
<defs>
<clipPath id="clip0_1_1621">
<path d="M0.529297 0.267578H39.7684V31.6589H0.529297V0.267578Z" fill="white"/>
</clipPath>
</defs>
</svg>
