<svg width="34" height="30" viewBox="0 0 34 30" fill="none" xmlns="http://www.w3.org/2000/svg">
<g clip-path="url(#clip0_1_730)">
<path d="M33.2274 14.8803C33.2274 15.8919 32.3844 16.6844 31.429 16.6844H29.6306L29.6699 25.6877C29.6699 25.8395 29.6587 25.9912 29.6418 26.143V27.0478C29.6418 28.2898 28.6358 29.2958 27.3938 29.2958H26.4945C26.4327 29.2958 26.3709 29.2958 26.3091 29.2902C26.2304 29.2958 26.1517 29.2958 26.073 29.2958H24.2465H22.8977C21.6556 29.2958 20.6497 28.2898 20.6497 27.0478V25.699V22.1021C20.6497 21.1074 19.846 20.3037 18.8512 20.3037H15.2544C14.2596 20.3037 13.4559 21.1074 13.4559 22.1021V25.699V27.0478C13.4559 28.2898 12.4499 29.2958 11.2079 29.2958H9.85908H8.06628C7.98197 29.2958 7.89767 29.2902 7.81337 29.2846C7.74593 29.2902 7.67849 29.2958 7.61105 29.2958H6.71183C5.4698 29.2958 4.4638 28.2898 4.4638 27.0478V20.7533C4.4638 20.7027 4.4638 20.6465 4.46942 20.5959V16.6844H2.66537C1.65376 16.6844 0.866943 15.8976 0.866943 14.8803C0.866943 14.3745 1.03555 13.9249 1.42895 13.5315L15.8389 0.970603C16.2323 0.577197 16.6819 0.520996 17.0753 0.520996C17.4687 0.520996 17.9183 0.633398 18.2555 0.914402L32.6092 13.5315C33.0588 13.9249 33.2836 14.3745 33.2274 14.8803Z" fill="#1A1A1A"/>
</g>
<defs>
<clipPath id="clip0_1_730">
<path d="M0.866943 0.520996H33.2386V29.2958H0.866943V0.520996Z" fill="white"/>
</clipPath>
</defs>
</svg>
