<svg width="20" height="26" viewBox="0 0 20 26" fill="none" xmlns="http://www.w3.org/2000/svg">
<path d="M10.7756 25.1345C13.3383 21.9273 19.1832 14.1541 19.1832 9.7879C19.1832 4.49253 14.887 0.196289 9.59162 0.196289C4.29624 0.196289 0 4.49253 0 9.7879C0 14.1541 5.84489 21.9273 8.40765 25.1345C9.02211 25.8988 10.1611 25.8988 10.7756 25.1345ZM9.59162 6.5907C10.4396 6.5907 11.2528 6.92755 11.8524 7.52714C12.452 8.12673 12.7888 8.93995 12.7888 9.7879C12.7888 10.6359 12.452 11.4491 11.8524 12.0487C11.2528 12.6483 10.4396 12.9851 9.59162 12.9851C8.74366 12.9851 7.93044 12.6483 7.33085 12.0487C6.73126 11.4491 6.39441 10.6359 6.39441 9.7879C6.39441 8.93995 6.73126 8.12673 7.33085 7.52714C7.93044 6.92755 8.74366 6.5907 9.59162 6.5907Z" fill="#666666"/>
</svg>
