<svg width="21" height="24" viewBox="0 0 21 24" fill="none" xmlns="http://www.w3.org/2000/svg">
<g clip-path="url(#clip0_1_1585)">
<path d="M6.65871 6.92629V9.13349H14.0161V6.92629C14.0161 4.89383 12.3698 3.24762 10.3374 3.24762C8.30492 3.24762 6.65871 4.89383 6.65871 6.92629ZM3.71578 9.13349V6.92629C3.71578 3.27061 6.68171 0.304688 10.3374 0.304688C13.9931 0.304688 16.959 3.27061 16.959 6.92629V9.13349H17.6947C19.3179 9.13349 20.6377 10.4532 20.6377 12.0764V20.9052C20.6377 22.5284 19.3179 23.8482 17.6947 23.8482H2.98004C1.35683 23.8482 0.0371094 22.5284 0.0371094 20.9052V12.0764C0.0371094 10.4532 1.35683 9.13349 2.98004 9.13349H3.71578Z" fill="white"/>
</g>
<defs>
<clipPath id="clip0_1_1585">
<path d="M0.0371094 0.304688H20.6377V23.8482H0.0371094V0.304688Z" fill="white"/>
</clipPath>
</defs>
</svg>
