<svg width="30" height="29" viewBox="0 0 30 29" fill="none" xmlns="http://www.w3.org/2000/svg">
<g clip-path="url(#clip0_1_768)">
<path d="M9.4608 25.1634L8.75266 26.8213C7.70171 26.2874 6.73505 25.6299 5.85832 24.8599L7.13408 23.5842C7.83659 24.1968 8.61778 24.7307 9.4608 25.1634ZM2.94711 15.2889H1.14307C1.22175 16.4804 1.44655 17.6325 1.80062 18.7228L3.4754 18.054C3.20002 17.1716 3.01456 16.2443 2.94711 15.2889ZM2.94711 13.4905C3.0258 12.4339 3.23936 11.4111 3.57094 10.45L1.91302 9.74189C1.49151 10.9221 1.22737 12.181 1.14307 13.4905H2.94711ZM4.27908 8.79771C4.71744 7.96032 5.24573 7.17912 5.85832 6.46537L4.58256 5.18961C3.81261 6.06635 3.14944 7.033 2.62115 8.08396L4.27908 8.79771ZM22.9771 23.5842C22.1959 24.2586 21.3248 24.8374 20.3862 25.2927L21.055 26.9675C22.2184 26.4111 23.2918 25.6973 24.2529 24.8543L22.9771 23.5842ZM7.12846 5.19523C7.90965 4.52082 8.78077 3.94195 9.71932 3.48673L9.05053 1.81194C7.88717 2.36833 6.81374 3.08208 5.85832 3.92509L7.12846 5.19523ZM25.8265 19.9817C25.3881 20.8191 24.8598 21.6003 24.2472 22.314L25.523 23.5898C26.293 22.713 26.9561 21.7408 27.4844 20.6954L25.8265 19.9817ZM27.1585 15.2889C27.0798 16.3455 26.8662 17.3683 26.5346 18.3294L28.1925 19.0375C28.6141 17.8517 28.8782 16.5928 28.9569 15.2833H27.1585V15.2889ZM18.7171 25.9671C17.8347 26.2481 16.9074 26.4279 15.952 26.4954V28.2994C17.1435 28.2207 18.2956 27.9959 19.3859 27.6419L18.7171 25.9671ZM14.1536 26.4954C13.097 26.4167 12.0741 26.2031 11.1131 25.8715L10.405 27.5295C11.5908 27.951 12.8497 28.2151 14.1592 28.2938V26.4954H14.1536ZM26.6302 10.7254C26.9112 11.6078 27.091 12.5351 27.1585 13.4905H28.9625C28.8838 12.299 28.659 11.1469 28.3049 10.0566L26.6302 10.7254ZM5.85832 22.314C5.18391 21.5328 4.60504 20.6617 4.14981 19.7232L2.47503 20.392C3.03142 21.5553 3.74517 22.6287 4.58818 23.5898L5.85832 22.314ZM15.952 2.28403C17.0086 2.36271 18.0258 2.57627 18.9925 2.90786L19.7006 1.24993C18.5204 0.828426 17.2615 0.564282 15.952 0.47998V2.28403ZM11.3885 2.81232C12.2708 2.53131 13.1982 2.35147 14.1536 2.28403V0.47998C12.9621 0.558662 11.81 0.783465 10.7197 1.13753L11.3885 2.81232ZM25.523 5.18961L24.2472 6.46537C24.9217 7.24657 25.5005 8.11768 25.9614 9.05623L27.6362 8.38744C27.0798 7.22409 26.366 6.15065 25.523 5.18961ZM22.9771 5.19523L24.2529 3.91947C23.3761 3.14952 22.4095 2.48635 21.3585 1.95806L20.6504 3.61599C21.4822 4.05436 22.269 4.58264 22.9771 5.19523Z" fill="#1A1A1A"/>
<path d="M15.0526 22.033C15.9217 22.033 16.6263 21.3285 16.6263 20.4594C16.6263 19.5903 15.9217 18.8857 15.0526 18.8857C14.1835 18.8857 13.479 19.5903 13.479 20.4594C13.479 21.3285 14.1835 22.033 15.0526 22.033Z" fill="#1A1A1A"/>
<path d="M15.4856 17.537H14.5864C14.2154 17.537 13.912 17.2336 13.912 16.8626C13.912 12.8724 18.2619 13.2714 18.2619 10.8042C18.2619 9.68017 17.2615 8.54491 15.036 8.54491C13.4005 8.54491 12.5463 9.08444 11.7089 10.1579C11.4897 10.4389 11.085 10.4951 10.7984 10.2928L10.0622 9.77571C9.74747 9.55653 9.67441 9.11254 9.91607 8.80905C11.1075 7.28039 12.5238 6.29688 15.0416 6.29688C17.9809 6.29688 20.5156 7.97166 20.5156 10.8042C20.5156 14.6034 16.1656 14.3729 16.1656 16.8626C16.16 17.2336 15.8565 17.537 15.4856 17.537Z" fill="#1A1A1A"/>
</g>
<defs>
<clipPath id="clip0_1_768">
<path d="M0.665283 0.00195312H29.4401V28.7768H0.665283V0.00195312Z" fill="white"/>
</clipPath>
</defs>
</svg>
