<svg width="36" height="32" viewBox="0 0 36 32" fill="none" xmlns="http://www.w3.org/2000/svg">
<g clip-path="url(#clip0_1_1605)">
<path d="M30.2409 25.4227C30.2409 25.8396 29.9589 26.1401 29.5543 26.1401C29.1373 26.1401 28.8676 25.8213 28.8676 25.4227C28.8676 25.0242 29.1373 24.7054 29.5543 24.7054C29.9589 24.7054 30.2409 25.0242 30.2409 25.4227ZM11.1854 24.7054C10.7501 24.7054 10.4987 25.0242 10.4987 25.4227C10.4987 25.8213 10.7501 26.1401 11.1854 26.1401C11.584 26.1401 11.8537 25.8396 11.8537 25.4227C11.8476 25.0242 11.584 24.7054 11.1854 24.7054ZM18.3895 24.687C18.0584 24.687 17.8561 24.9016 17.807 25.2204H18.9781C18.9229 24.8709 18.7083 24.687 18.3895 24.687ZM24.9988 24.7054C24.5819 24.7054 24.3305 25.0242 24.3305 25.4227C24.3305 25.8213 24.5819 26.1401 24.9988 26.1401C25.4157 26.1401 25.6855 25.8396 25.6855 25.4227C25.6855 25.0242 25.4157 24.7054 24.9988 24.7054ZM31.4917 26.3056C31.4917 26.324 31.5101 26.3363 31.5101 26.3731C31.5101 26.3914 31.4917 26.4037 31.4917 26.4405C31.4733 26.4589 31.4733 26.4712 31.461 26.4895C31.4426 26.5079 31.4304 26.5202 31.3936 26.5202C31.3752 26.5386 31.3629 26.5386 31.3261 26.5386C31.3077 26.5386 31.2955 26.5386 31.2587 26.5202C31.2403 26.5202 31.228 26.5018 31.2097 26.4895C31.1913 26.4712 31.179 26.4589 31.179 26.4405C31.1606 26.4098 31.1606 26.3914 31.1606 26.3731C31.1606 26.3424 31.1606 26.324 31.179 26.3056C31.179 26.275 31.1974 26.2566 31.2097 26.2382C31.228 26.2198 31.2403 26.2198 31.2587 26.2075C31.2894 26.1891 31.3077 26.1891 31.3261 26.1891C31.3568 26.1891 31.3752 26.1891 31.3936 26.2075C31.4242 26.2259 31.4426 26.2259 31.461 26.2382C31.4794 26.2504 31.4733 26.275 31.4917 26.3056ZM31.3568 26.3914C31.3875 26.3914 31.3875 26.3731 31.4058 26.3731C31.4242 26.3547 31.4242 26.3424 31.4242 26.324C31.4242 26.3056 31.4242 26.2934 31.4058 26.275C31.3875 26.275 31.3752 26.2566 31.3384 26.2566H31.2403V26.4712H31.2894V26.3853H31.3077L31.3752 26.4712H31.4242L31.3568 26.3914ZM35.949 5.23297V26.8145C35.949 28.4392 34.6308 29.7574 33.0061 29.7574H3.57672C1.95198 29.7574 0.633789 28.4392 0.633789 26.8145V5.23297C0.633789 3.60823 1.95198 2.29004 3.57672 2.29004H33.0061C34.6308 2.29004 35.949 3.60823 35.949 5.23297ZM4.5577 13.792C4.5577 18.4823 8.36512 22.2836 13.0493 22.2836C14.717 22.2836 16.354 21.7808 17.7396 20.8673C13.27 17.2316 13.3007 10.3708 17.7396 6.7351C16.354 5.81543 14.717 5.31881 13.0493 5.31881C8.36512 5.31268 4.5577 9.1201 4.5577 13.792ZM18.2914 20.4627C22.6138 17.0905 22.5954 10.518 18.2914 7.12749C13.9874 10.518 13.969 17.0967 18.2914 20.4627ZM9.56682 25.1407C9.56682 24.6073 9.21735 24.2578 8.66555 24.2394C8.38352 24.2394 8.08309 24.3253 7.88076 24.6379C7.73362 24.3866 7.48224 24.2394 7.13277 24.2394C6.89979 24.2394 6.6668 24.3253 6.48287 24.5705V24.3007H5.98012V26.5509H6.48287C6.48287 25.3921 6.32959 24.6993 7.03467 24.6993C7.66005 24.6993 7.53742 25.3246 7.53742 26.5509H8.02178C8.02178 25.4289 7.8685 24.6993 8.57358 24.6993C9.19895 24.6993 9.07633 25.3124 9.07633 26.5509H9.57908V25.1407H9.56682ZM12.3197 24.3007H11.8353V24.5705C11.6698 24.3682 11.4368 24.2394 11.118 24.2394C10.4865 24.2394 10.0021 24.7422 10.0021 25.4227C10.0021 26.1094 10.4865 26.606 11.118 26.606C11.4368 26.606 11.6698 26.4895 11.8353 26.275V26.557H12.3197V24.3007ZM14.8028 25.8703C14.8028 24.9506 13.3988 25.3675 13.3988 24.9384C13.3988 24.5889 14.1284 24.6441 14.533 24.8709L14.7353 24.4724C14.159 24.0984 12.8838 24.1045 12.8838 24.9752C12.8838 25.8519 14.2878 25.484 14.2878 25.8948C14.2878 26.2811 13.4601 26.2504 13.0186 25.9439L12.804 26.3301C13.4907 26.7961 14.8028 26.698 14.8028 25.8703ZM16.9732 26.4405L16.8383 26.0236C16.6053 26.1523 16.0903 26.2933 16.0903 25.7722V24.7544H16.8935V24.3007H16.0903V23.6141H15.5876V24.3007H15.1216V24.7483H15.5876V25.7722C15.5876 26.8513 16.6483 26.6551 16.9732 26.4405ZM17.7886 25.6189H19.4747C19.4747 24.6257 19.021 24.2333 18.4079 24.2333C17.758 24.2333 17.292 24.7177 17.292 25.4166C17.292 26.6735 18.6777 26.8819 19.3643 26.2872L19.1314 25.9194C18.6531 26.3117 17.9297 26.275 17.7886 25.6189ZM21.4121 24.3007C21.1301 24.1781 20.7009 24.1904 20.4802 24.5705V24.3007H19.9775V26.5509H20.4802V25.2817C20.4802 24.5705 21.0627 24.6625 21.265 24.7667L21.4121 24.3007ZM22.062 25.4227C22.062 24.7238 22.7732 24.4969 23.3312 24.9077L23.5642 24.5092C22.8529 23.9513 21.5593 24.2578 21.5593 25.4289C21.5593 26.6428 22.9326 26.8881 23.5642 26.3485L23.3312 25.95C22.7671 26.3485 22.062 26.1094 22.062 25.4227ZM26.1515 24.3007H25.6487V24.5705C25.1398 23.8961 23.8155 24.2762 23.8155 25.4227C23.8155 26.5999 25.1889 26.9371 25.6487 26.275V26.557H26.1515V24.3007ZM28.2177 24.3007C28.0705 24.2272 27.5432 24.1229 27.2857 24.5705V24.3007H26.8014V26.5509H27.2857V25.2817C27.2857 24.6073 27.8375 24.6502 28.0705 24.7667L28.2177 24.3007ZM30.6885 23.3872H30.2041V24.5705C29.7014 23.9022 28.3709 24.2578 28.3709 25.4227C28.3709 26.6122 29.7504 26.931 30.2041 26.275V26.557H30.6885V23.3872ZM31.1545 18.7827V19.0648H31.2035V18.7827H31.32V18.7337H31.038V18.7827H31.1545ZM31.5591 26.3731C31.5591 26.3424 31.5591 26.3056 31.5407 26.275C31.5223 26.2566 31.5101 26.2259 31.4917 26.2075C31.4733 26.1891 31.4426 26.1769 31.4242 26.1585C31.3936 26.1585 31.3568 26.1401 31.3261 26.1401C31.3077 26.1401 31.2771 26.1585 31.2403 26.1585C31.2097 26.1769 31.1913 26.1891 31.1729 26.2075C31.1422 26.2259 31.1238 26.2566 31.1238 26.275C31.1054 26.3056 31.1054 26.3424 31.1054 26.3731C31.1054 26.3914 31.1054 26.4221 31.1238 26.4589C31.1238 26.4773 31.1422 26.5079 31.1729 26.5263C31.1913 26.5447 31.2035 26.557 31.2403 26.5754C31.271 26.5938 31.3077 26.5938 31.3261 26.5938C31.3568 26.5938 31.3936 26.5938 31.4242 26.5754C31.4426 26.557 31.4733 26.5447 31.4917 26.5263C31.5101 26.5079 31.5223 26.4773 31.5407 26.4589C31.5591 26.4221 31.5591 26.3914 31.5591 26.3731ZM31.7553 18.7276H31.6695L31.5714 18.9421L31.4733 18.7276H31.3875V19.0586H31.4365V18.8073L31.5346 19.0218H31.602L31.6879 18.8073V19.0586H31.7553V18.7276ZM32.0251 13.792C32.0251 9.1201 28.2177 5.31268 23.5335 5.31268C21.8658 5.31268 20.2288 5.81543 18.8432 6.72897C23.2637 10.3647 23.3312 17.2438 18.8432 20.8612C20.2288 21.7808 21.8781 22.2775 23.5335 22.2775C28.2177 22.2836 32.0251 18.4823 32.0251 13.792Z" fill="#F97316"/>
</g>
<defs>
<clipPath id="clip0_1_1605">
<path d="M0.633789 0.267578H35.949V31.6589H0.633789V0.267578Z" fill="white"/>
</clipPath>
</defs>
</svg>
