<svg width="15" height="15" viewBox="0 0 15 15" fill="none" xmlns="http://www.w3.org/2000/svg">
<path d="M8.90286 1.84703C8.90286 1.2557 8.42511 0.777954 7.83378 0.777954C7.24244 0.777954 6.7647 1.2557 6.7647 1.84703V6.65789H1.95384C1.36251 6.65789 0.884766 7.13563 0.884766 7.72697C0.884766 8.3183 1.36251 8.79605 1.95384 8.79605H6.7647V13.6069C6.7647 14.1982 7.24244 14.676 7.83378 14.676C8.42511 14.676 8.90286 14.1982 8.90286 13.6069V8.79605H13.7137C14.305 8.79605 14.7828 8.3183 14.7828 7.72697C14.7828 7.13563 14.305 6.65789 13.7137 6.65789H8.90286V1.84703Z" fill="white"/>
</svg>
