<svg width="17" height="16" viewBox="0 0 17 16" fill="none" xmlns="http://www.w3.org/2000/svg">
<g clip-path="url(#clip0_1_1513)">
<path d="M8.55394 0.213379C8.69404 0.213379 8.83415 0.243836 8.96207 0.301705L14.6972 2.73525C15.3673 3.01851 15.8668 3.67943 15.8637 4.47742C15.8485 7.4988 14.6058 13.0268 9.35801 15.5396C8.84937 15.7832 8.2585 15.7832 7.74986 15.5396C2.50205 13.0268 1.25938 7.4988 1.24415 4.47742C1.24111 3.67943 1.74061 3.01851 2.41067 2.73525L8.14885 0.301705C8.27373 0.243836 8.41383 0.213379 8.55394 0.213379ZM8.55394 2.24794V13.7608C12.7571 11.7263 13.887 7.22163 13.9144 4.52006L8.55394 2.24794Z" fill="#1A1A1A"/>
</g>
<defs>
<clipPath id="clip0_1_1513">
<path d="M0.756836 0.213379H16.351V15.8076H0.756836V0.213379Z" fill="white"/>
</clipPath>
</defs>
</svg>
