<svg width="20" height="27" viewBox="0 0 20 27" fill="none" xmlns="http://www.w3.org/2000/svg">
<path d="M9.6803 0.555603C7.58558 0.555603 5.80155 1.89362 5.14507 3.76284H3.26583C1.49684 3.76284 0.0585938 5.20109 0.0585938 6.97008V23.0063C0.0585938 24.7753 1.49684 26.2135 3.26583 26.2135H16.0948C17.8638 26.2135 19.302 24.7753 19.302 23.0063V6.97008C19.302 5.20109 17.8638 3.76284 16.0948 3.76284H14.2155C13.5591 1.89362 11.775 0.555603 9.6803 0.555603ZM9.6803 3.76284C10.1056 3.76284 10.5135 3.93179 10.8142 4.23253C11.115 4.53327 11.2839 4.94115 11.2839 5.36646C11.2839 5.79176 11.115 6.19965 10.8142 6.50039C10.5135 6.80112 10.1056 6.97008 9.6803 6.97008C9.255 6.97008 8.84711 6.80112 8.54638 6.50039C8.24564 6.19965 8.07669 5.79176 8.07669 5.36646C8.07669 4.94115 8.24564 4.53327 8.54638 4.23253C8.84711 3.93179 9.255 3.76284 9.6803 3.76284ZM3.66674 14.1864C3.66674 13.8674 3.79345 13.5615 4.019 13.3359C4.24455 13.1104 4.55047 12.9836 4.86945 12.9836C5.18843 12.9836 5.49434 13.1104 5.7199 13.3359C5.94545 13.5615 6.07216 13.8674 6.07216 14.1864C6.07216 14.5053 5.94545 14.8113 5.7199 15.0368C5.49434 15.2624 5.18843 15.3891 4.86945 15.3891C4.55047 15.3891 4.24455 15.2624 4.019 15.0368C3.79345 14.8113 3.66674 14.5053 3.66674 14.1864ZM8.8785 13.3846H15.293C15.734 13.3846 16.0948 13.7454 16.0948 14.1864C16.0948 14.6274 15.734 14.9882 15.293 14.9882H8.8785C8.4375 14.9882 8.07669 14.6274 8.07669 14.1864C8.07669 13.7454 8.4375 13.3846 8.8785 13.3846ZM3.66674 18.9972C3.66674 18.6782 3.79345 18.3723 4.019 18.1468C4.24455 17.9212 4.55047 17.7945 4.86945 17.7945C5.18843 17.7945 5.49434 17.9212 5.7199 18.1468C5.94545 18.3723 6.07216 18.6782 6.07216 18.9972C6.07216 19.3162 5.94545 19.6221 5.7199 19.8477C5.49434 20.0732 5.18843 20.1999 4.86945 20.1999C4.55047 20.1999 4.24455 20.0732 4.019 19.8477C3.79345 19.6221 3.66674 19.3162 3.66674 18.9972ZM8.07669 18.9972C8.07669 18.5562 8.4375 18.1954 8.8785 18.1954H15.293C15.734 18.1954 16.0948 18.5562 16.0948 18.9972C16.0948 19.4382 15.734 19.799 15.293 19.799H8.8785C8.4375 19.799 8.07669 19.4382 8.07669 18.9972Z" fill="#242424"/>
</svg>
