<svg width="37" height="30" viewBox="0 0 37 30" fill="none" xmlns="http://www.w3.org/2000/svg">
<g clip-path="url(#clip0_1_829)">
<path d="M3.72576 2.43799C1.74187 2.43799 0.128906 4.05095 0.128906 6.03484V17.7246V22.2207V23.1199C0.128906 25.604 2.1409 27.616 4.62498 27.616C6.09744 27.616 7.4013 26.9078 8.22183 25.8176C9.04236 26.9078 10.3462 27.616 11.8187 27.616C14.3028 27.616 16.3148 25.604 16.3148 23.1199C16.3148 22.8108 16.281 22.5129 16.2248 22.2207H23.5085H25.3968C25.3406 22.5129 25.3069 22.8108 25.3069 23.1199C25.3069 25.604 27.3189 27.616 29.803 27.616C32.287 27.616 34.299 25.604 34.299 23.1199C34.299 22.8108 34.2653 22.5129 34.2091 22.2207H34.299C35.2938 22.2207 36.0975 21.417 36.0975 20.4223V16.8254V15.9262V15.3473C36.0975 14.8303 35.9176 14.3245 35.5917 13.9254L32.287 9.89022C31.6913 9.15961 30.7977 8.73811 29.8535 8.73811H27.1053V6.03484C27.1053 4.05095 25.4924 2.43799 23.5085 2.43799H3.72576ZM33.0064 15.027H27.1053V11.4301H29.8479C29.9828 11.4301 30.1121 11.4919 30.1964 11.5931L33.0064 15.027ZM29.803 21.3215C30.2799 21.3215 30.7374 21.511 31.0746 21.8482C31.4119 22.1855 31.6014 22.6429 31.6014 23.1199C31.6014 23.5969 31.4119 24.0543 31.0746 24.3916C30.7374 24.7289 30.2799 24.9183 29.803 24.9183C29.326 24.9183 28.8686 24.7289 28.5313 24.3916C28.194 24.0543 28.0045 23.5969 28.0045 23.1199C28.0045 22.6429 28.194 22.1855 28.5313 21.8482C28.8686 21.511 29.326 21.3215 29.803 21.3215ZM10.0203 23.1199C10.0203 22.6429 10.2097 22.1855 10.547 21.8482C10.8843 21.511 11.3417 21.3215 11.8187 21.3215C12.2957 21.3215 12.7531 21.511 13.0904 21.8482C13.4276 22.1855 13.6171 22.6429 13.6171 23.1199C13.6171 23.5969 13.4276 24.0543 13.0904 24.3916C12.7531 24.7289 12.2957 24.9183 11.8187 24.9183C11.3417 24.9183 10.8843 24.7289 10.547 24.3916C10.2097 24.0543 10.0203 23.5969 10.0203 23.1199ZM4.62498 21.3215C5.10195 21.3215 5.55939 21.511 5.89666 21.8482C6.23393 22.1855 6.4234 22.6429 6.4234 23.1199C6.4234 23.5969 6.23393 24.0543 5.89666 24.3916C5.55939 24.7289 5.10195 24.9183 4.62498 24.9183C4.148 24.9183 3.69057 24.7289 3.3533 24.3916C3.01602 24.0543 2.82655 23.5969 2.82655 23.1199C2.82655 22.6429 3.01602 22.1855 3.3533 21.8482C3.69057 21.511 4.148 21.3215 4.62498 21.3215Z" fill="#1A1A1A"/>
</g>
<defs>
<clipPath id="clip0_1_829">
<path d="M0.128906 0.638672H36.0975V29.4135H0.128906V0.638672Z" fill="white"/>
</clipPath>
</defs>
</svg>
