<svg width="13" height="14" viewBox="0 0 13 14" fill="none" xmlns="http://www.w3.org/2000/svg">
<path d="M6.68059 7.06416C7.58531 7.06416 8.45297 6.70477 9.0927 6.06504C9.73243 5.42531 10.0918 4.55765 10.0918 3.65293C10.0918 2.74822 9.73243 1.88056 9.0927 1.24083C8.45297 0.601096 7.58531 0.241699 6.68059 0.241699C5.77588 0.241699 4.90822 0.601096 4.26849 1.24083C3.62876 1.88056 3.26936 2.74822 3.26936 3.65293C3.26936 4.55765 3.62876 5.42531 4.26849 6.06504C4.90822 6.70477 5.77588 7.06416 6.68059 7.06416ZM5.46268 8.34337C2.83763 8.34337 0.710938 10.4701 0.710938 13.0951C0.710938 13.5322 1.06539 13.8866 1.50245 13.8866H11.8587C12.2958 13.8866 12.6502 13.5322 12.6502 13.0951C12.6502 10.4701 10.5236 8.34337 7.89851 8.34337H5.46268Z" fill="white"/>
</svg>
