<svg width="36" height="32" viewBox="0 0 36 32" fill="none" xmlns="http://www.w3.org/2000/svg">
<g clip-path="url(#clip0_1_1601)">
<path d="M29.214 14.4488C29.214 14.4488 29.6799 16.7296 29.7842 17.2078H27.7364C27.9387 16.6621 28.7173 14.5408 28.7173 14.5408C28.7051 14.5592 28.9197 13.9828 29.0423 13.6272L29.214 14.4488ZM35.7068 5.17243V26.7539C35.7068 28.3787 34.3886 29.6969 32.7639 29.6969H3.33454C1.70979 29.6969 0.391602 28.3787 0.391602 26.7539V5.17243C0.391602 3.54768 1.70979 2.22949 3.33454 2.22949H32.7639C34.3886 2.22949 35.7068 3.54768 35.7068 5.17243ZM9.74155 20.5738L13.6164 11.0583H11.0107L8.60116 17.5573L8.33752 16.2391L7.47917 11.8615C7.33815 11.2545 6.90284 11.0828 6.36331 11.0583H2.39648L2.35356 11.2484C3.32227 11.4936 4.18676 11.8492 4.94089 12.2968L7.13583 20.5738H9.74155ZM15.5293 20.586L17.0744 11.0583H14.6097L13.0707 20.586H15.5293ZM24.1067 17.4714C24.119 16.3862 23.4569 15.5585 22.0406 14.878C21.1761 14.4427 20.6488 14.1484 20.6488 13.7008C20.6611 13.2962 21.0964 12.8792 22.0651 12.8792C22.8683 12.8608 23.4569 13.0509 23.8983 13.241L24.119 13.3452L24.4562 11.2851C23.9719 11.0951 23.1993 10.8805 22.249 10.8805C19.815 10.8805 18.1044 12.1803 18.0921 14.0319C18.0737 15.3991 19.3183 16.1594 20.2503 16.6192C21.2006 17.0852 21.5256 17.3917 21.5256 17.8025C21.5133 18.4402 20.753 18.7345 20.048 18.7345C19.067 18.7345 18.5397 18.5812 17.7365 18.2256L17.4116 18.0723L17.0682 20.212C17.6446 20.4757 18.7114 20.7087 19.815 20.7209C22.4023 20.7271 24.0884 19.4457 24.1067 17.4714ZM32.7639 20.586L30.7774 11.0583H28.8706C28.282 11.0583 27.8345 11.23 27.5831 11.8492L23.9228 20.586H26.5101C26.5101 20.586 26.9332 19.4089 27.0252 19.1575H30.1888C30.2624 19.4947 30.4831 20.586 30.4831 20.586H32.7639Z" fill="#2563EB"/>
</g>
<defs>
<clipPath id="clip0_1_1601">
<path d="M0.391602 0.267578H35.7068V31.6589H0.391602V0.267578Z" fill="white"/>
</clipPath>
</defs>
</svg>
